<svg width="138" height="24" viewBox="0 0 138 24" fill="none" xmlns="http://www.w3.org/2000/svg">
<g clip-path="url(#clip0_4801_17680)">
<path d="M10.7391 4.29158C9.76225 3.87431 8.645 3.66846 7.38735 3.66846H0.818359V20.3314H4.07068V14.167H7.31131C8.70349 14.167 9.89094 13.9611 10.8678 13.555C11.8447 13.1488 12.5876 12.5535 13.1023 11.7746C13.6171 10.9957 13.8745 10.0499 13.8745 8.93161C13.8745 7.81333 13.5995 6.88421 13.0438 6.09975C12.4881 5.31528 11.7218 4.71441 10.745 4.29714L10.7391 4.29158ZM9.73885 10.9178C9.1539 11.3295 8.34082 11.5354 7.29961 11.5354H4.07068V6.36124H7.32301C8.32327 6.36124 9.12466 6.58378 9.7213 7.0233C10.318 7.46283 10.6163 8.11933 10.6163 8.99281C10.6163 9.8663 10.3238 10.5061 9.73885 10.9234V10.9178Z" fill="#292D3F"/>
<path d="M20.1278 3.66846H16.8755V20.3314H27.5625V17.4995H20.1278V3.66846Z" fill="#292D3F"/>
<path d="M35.3422 3.66846L28.6211 20.3314H32.1893L33.6283 16.5593H40.6711L42.1627 20.3314H45.8303L38.9747 3.66846H35.348H35.3422ZM34.4297 13.9277L37.097 7.16796L39.8521 13.9277H34.4355H34.4297Z" fill="#292D3F"/>
<path d="M46.6436 6.50033H51.4869V20.3314H54.7568V6.50033H59.5944V3.66846H46.6436V6.50033Z" fill="#292D3F"/>
<path d="M62.4136 20.3314H65.6659V13.5828H72.7087V10.8455H65.6659V6.50033H73.475V3.66846H62.4136V20.3314Z" fill="#292D3F"/>
<path d="M112.596 12.3922C113.228 11.9805 113.72 11.4575 114.082 10.8344C114.439 10.2057 114.62 9.48241 114.62 8.65344C114.62 7.62417 114.369 6.734 113.872 5.98847C113.369 5.24295 112.661 4.6699 111.742 4.26933C110.824 3.86875 109.742 3.66846 108.502 3.66846H101.722V20.3314H104.974V13.8109H107.074L111.602 20.3314H115.504L110.409 13.2601C111.233 13.0932 111.965 12.8039 112.591 12.3922H112.596ZM104.969 11.2739V6.26109H108.186C109.221 6.26109 110.005 6.47807 110.537 6.91759C111.07 7.35155 111.339 7.99137 111.339 8.82034C111.339 9.64932 111.046 10.2335 110.461 10.6452C109.876 11.0625 109.063 11.2683 108.022 11.2683H104.969V11.2739Z" fill="#292D3F"/>
<path d="M134.082 3.66846L128.01 13.5383L121.675 3.66846H118.54V20.3314H121.517L121.47 8.75914L126.723 16.8931H129.01L134.064 8.87598L134.017 20.3314H137.182V3.66846H134.082Z" fill="#292D3F"/>
<path d="M91.3338 19.3356C91.4917 19.0852 91.6379 18.8181 91.7783 18.5455C90.3277 18.8905 88.7658 19.0741 87.1514 19.0741C85.5369 19.0741 83.9692 18.8905 82.5244 18.5455C82.6648 18.8181 82.811 19.0796 82.969 19.3356C84.1155 21.1771 85.6013 22.1897 87.1572 22.1897C88.7132 22.1897 90.1931 21.1771 91.3455 19.3356H91.3338Z" fill="#292D3F"/>
<path d="M94.8609 15.9807C96.7971 14.8903 97.8617 13.4771 97.8617 11.9972C97.8617 10.5173 96.7971 9.10968 94.8609 8.01365C94.5977 7.86344 94.3169 7.72435 94.0303 7.59082C94.3929 8.97059 94.586 10.4561 94.586 11.9916C94.586 13.5272 94.3929 15.0182 94.0303 16.3924C94.3169 16.2589 94.5918 16.1198 94.8609 15.9696V15.9807Z" fill="#292D3F"/>
<path d="M88.251 0.636353C89.8771 0.997986 91.3688 2.15521 92.5153 3.99676C92.8896 4.59763 93.2114 5.26526 93.4921 5.96627C94.2292 6.23333 94.9253 6.53932 95.5629 6.89539C97.5049 7.98586 98.7157 9.40457 99.096 10.9513C98.5695 5.48224 94.001 1.13708 88.251 0.636353Z" fill="#292D3F"/>
<path d="M87.1455 1.8103C85.5954 1.8103 84.1096 2.82288 82.9573 4.66443C82.7993 4.91479 82.6531 5.18184 82.5127 5.45446C83.9634 5.10951 85.5252 4.92591 87.1397 4.92591C88.7541 4.92591 90.3218 5.10951 91.7666 5.45446C91.6262 5.18184 91.48 4.92035 91.322 4.66443C90.1755 2.82288 88.6898 1.8103 87.1338 1.8103H87.1455Z" fill="#292D3F"/>
<path d="M81.8751 6.98992C81.3545 8.50322 81.0796 10.2168 81.0796 12.0027C81.0796 13.7886 81.3604 15.5022 81.8751 17.0155C83.4662 17.5107 85.2678 17.7722 87.1455 17.7722C89.0232 17.7722 90.8249 17.5051 92.4159 17.0155C92.9365 15.5022 93.2115 13.7886 93.2115 12.0027C93.2115 10.2168 92.9307 8.50322 92.4159 6.98992C90.8249 6.49477 89.0232 6.23328 87.1455 6.23328C85.2678 6.23328 83.4662 6.50033 81.8751 6.98992Z" fill="#292D3F"/>
<path d="M81.7755 20.0032C81.4011 19.4023 81.0794 18.7347 80.7986 18.0337C80.0616 17.7666 79.3655 17.4606 78.7279 17.1046C76.7859 16.0141 75.575 14.5954 75.1948 13.0487C75.7213 18.5177 80.2897 22.8629 86.0398 23.3636C84.4136 23.002 82.922 21.8447 81.7755 20.0032Z" fill="#292D3F"/>
<path d="M78.7338 6.89539C79.3655 6.53932 80.0675 6.23333 80.8045 5.96627C81.0853 5.26526 81.407 4.60319 81.7814 3.99676C82.9279 2.14965 84.4195 0.997986 86.0457 0.636353C80.2956 1.13708 75.7271 5.48224 75.2007 10.9513C75.5809 9.40457 76.7976 7.98586 78.7338 6.89539Z" fill="#292D3F"/>
<path d="M95.5629 17.1046C94.9311 17.4606 94.2292 17.7666 93.4921 18.0337C93.2114 18.7347 92.8896 19.3968 92.5153 20.0032C91.3688 21.8503 89.8771 23.002 88.251 23.3636C94.001 22.8629 98.5695 18.5177 99.096 13.0487C98.7157 14.5954 97.499 16.0141 95.5629 17.1046Z" fill="#292D3F"/>
<path d="M79.4358 8.01925C77.4997 9.10971 76.4351 10.5229 76.4351 12.0028C76.4351 13.4827 77.4997 14.8903 79.4358 15.9863C79.6991 16.1365 79.9799 16.2756 80.2665 16.4091C79.9038 15.0294 79.7108 13.5439 79.7108 12.0083C79.7108 10.4728 79.9038 8.98175 80.2665 7.60754C79.9799 7.74107 79.7049 7.88016 79.4358 8.03038V8.01925Z" fill="#292D3F"/>
</g>
<defs>
<clipPath id="clip0_4801_17680">
<rect width="136.364" height="22.7273" fill="white" transform="translate(0.818359 0.636353)"/>
</clipPath>
</defs>
</svg>
