<svg width="27" height="27" viewBox="0 0 27 27" fill="none" xmlns="http://www.w3.org/2000/svg">
<path d="M13.5 26.4375C20.6452 26.4375 26.4375 20.6452 26.4375 13.5C26.4375 6.35482 20.6452 0.5625 13.5 0.5625C6.35482 0.5625 0.5625 6.35482 0.5625 13.5C0.5625 20.6452 6.35482 26.4375 13.5 26.4375Z" fill="url(#paint0_radial_117_1722)"/>
<path d="M13.5 6.5828C15.7529 6.5828 16.0198 6.59138 16.9095 6.63195C17.7321 6.6695 18.1789 6.80696 18.4762 6.92248C18.87 7.07556 19.1511 7.25837 19.4463 7.55361C19.7416 7.84893 19.9245 8.12997 20.0775 8.52379C20.193 8.82114 20.3305 9.26791 20.3681 10.0905C20.4086 10.9802 20.4172 11.2471 20.4172 13.5C20.4172 15.7529 20.4086 16.0198 20.3681 16.9095C20.3305 17.7322 20.193 18.1789 20.0775 18.4762C19.9245 18.87 19.7416 19.1511 19.4464 19.4464C19.1511 19.7416 18.87 19.9244 18.4762 20.0775C18.1789 20.1931 17.7321 20.3305 16.9095 20.368C16.0199 20.4086 15.7531 20.4173 13.5 20.4173C11.2469 20.4173 10.9801 20.4086 10.0905 20.368C9.26789 20.3305 8.82113 20.1931 8.52377 20.0775C8.12995 19.9244 7.84891 19.7416 7.55367 19.4464C7.25843 19.1511 7.07555 18.87 6.92248 18.4762C6.80695 18.1789 6.66949 17.7322 6.63195 16.9095C6.59137 16.0198 6.5828 15.7529 6.5828 13.5C6.5828 11.2471 6.59137 10.9802 6.63195 10.0905C6.66949 9.26791 6.80695 8.82114 6.92248 8.52379C7.07555 8.12997 7.25836 7.84893 7.55367 7.55368C7.84891 7.25837 8.12995 7.07556 8.52377 6.92248C8.82113 6.80696 9.26789 6.6695 10.0905 6.63195C10.9802 6.59138 11.2471 6.5828 13.5 6.5828ZM13.5 5.0625C11.2085 5.0625 10.9211 5.0722 10.0212 5.11327C9.12319 5.15426 8.50978 5.29685 7.97309 5.50547C7.41825 5.72105 6.94772 6.00954 6.47866 6.47867C6.00954 6.94773 5.72105 7.41826 5.50547 7.9731C5.29685 8.5098 5.15426 9.12313 5.11327 10.0212C5.0722 10.9212 5.0625 11.2085 5.0625 13.5C5.0625 15.7915 5.0722 16.0788 5.11327 16.9788C5.15426 17.8769 5.29685 18.4902 5.50547 19.0269C5.72105 19.5817 6.00954 20.0523 6.47866 20.5214C6.94772 20.9905 7.41825 21.2789 7.97309 21.4945C8.50978 21.7031 9.12319 21.8457 10.0212 21.8867C10.9211 21.9278 11.2085 21.9375 13.5 21.9375C15.7915 21.9375 16.0789 21.9278 16.9788 21.8867C17.8768 21.8457 18.4902 21.7031 19.0269 21.4945C19.5817 21.2789 20.0523 20.9905 20.5213 20.5214C20.9904 20.0523 21.279 19.5817 21.4945 19.0269C21.7031 18.4902 21.8457 17.8769 21.8867 16.9788C21.9278 16.0788 21.9375 15.7915 21.9375 13.5C21.9375 11.2085 21.9278 10.9212 21.8867 10.0212C21.8457 9.12313 21.7031 8.5098 21.4945 7.9731C21.279 7.41826 20.9904 6.94773 20.5213 6.47867C20.0523 6.00954 19.5817 5.72105 19.0269 5.50547C18.4902 5.29685 17.8768 5.15426 16.9788 5.11327C16.0789 5.0722 15.7915 5.0625 13.5 5.0625Z" fill="white"/>
<path d="M13.4986 8.67975C10.8358 8.67975 8.67725 10.8383 8.67725 13.5012C8.67725 16.164 10.8358 18.3226 13.4986 18.3226C16.1615 18.3226 18.3201 16.164 18.3201 13.5012C18.3201 10.8383 16.1615 8.67975 13.4986 8.67975ZM13.4986 16.6309C11.7702 16.6309 10.3689 15.2296 10.3689 13.5012C10.3689 11.7727 11.7702 10.3714 13.4986 10.3714C15.2272 10.3714 16.6283 11.7727 16.6283 13.5012C16.6283 15.2296 15.2272 16.6309 13.4986 16.6309Z" fill="white"/>
<path d="M19.5255 8.6794C19.5255 9.345 18.9858 9.88471 18.3201 9.88471C17.6544 9.88471 17.1147 9.345 17.1147 8.6794C17.1147 8.01371 17.6544 7.474 18.3201 7.474C18.9858 7.474 19.5255 8.01371 19.5255 8.6794Z" fill="white"/>
<defs>
<radialGradient id="paint0_radial_117_1722" cx="0" cy="0" r="1" gradientUnits="userSpaceOnUse" gradientTransform="translate(7.43558 28.4304) rotate(-90) scale(25.644 23.851)">
<stop stop-color="#FFDD55"/>
<stop offset="0.1" stop-color="#FFDD55"/>
<stop offset="0.5" stop-color="#FF543E"/>
<stop offset="1" stop-color="#C837AB"/>
</radialGradient>
</defs>
</svg>
