<svg width="27" height="27" viewBox="0 0 27 27" fill="none" xmlns="http://www.w3.org/2000/svg">
<path d="M13.4859 26.4094C20.6234 26.4094 26.4094 20.6234 26.4094 13.4859C26.4094 6.34852 20.6234 0.5625 13.4859 0.5625C6.34852 0.5625 0.5625 6.34852 0.5625 13.4859C0.5625 20.6234 6.34852 26.4094 13.4859 26.4094Z" fill="#2AB540"/>
<path d="M10.0044 7.63334C9.74182 7.06168 9.46618 7.0503 9.21617 7.04035C9.01209 7.03182 8.77852 7.03229 8.54495 7.03229C8.31138 7.03229 7.93176 7.11809 7.61114 7.46175C7.29004 7.80541 6.38525 8.63588 6.38525 10.3243C6.38525 12.0132 7.64016 13.6452 7.81522 13.8747C7.99028 14.1036 10.238 17.68 13.7972 19.0561C16.7557 20.1994 17.3573 19.9724 17.9995 19.915C18.6417 19.8577 20.0717 19.085 20.3633 18.2835C20.6554 17.4819 20.6554 16.7951 20.5679 16.6514C20.4803 16.5083 20.2468 16.4225 19.8966 16.2509C19.5465 16.0793 17.8245 15.2488 17.5039 15.1341C17.1828 15.0199 16.9492 14.9625 16.7156 15.3062C16.482 15.6494 15.8113 16.4225 15.6072 16.6514C15.4032 16.8809 15.1986 16.9093 14.8485 16.7377C14.4984 16.5656 13.3702 16.2035 12.0321 15.0341C10.9909 14.124 10.2883 13.0006 10.0837 12.6569C9.87964 12.3137 10.062 12.1279 10.2375 11.9568C10.3947 11.8032 10.5876 11.5558 10.7632 11.3558C10.9377 11.1553 10.9962 11.0121 11.1128 10.7832C11.2298 10.5542 11.1713 10.3537 11.0838 10.1816C10.9962 10.0096 10.3158 8.31213 10.0044 7.63334Z" fill="white"/>
</svg>
