<svg width="27" height="27" viewBox="0 0 27 27" fill="none" xmlns="http://www.w3.org/2000/svg">
<path d="M13.5 26.4375C20.6452 26.4375 26.4375 20.6452 26.4375 13.5C26.4375 6.35482 20.6452 0.5625 13.5 0.5625C6.35482 0.5625 0.5625 6.35482 0.5625 13.5C0.5625 20.6452 6.35482 26.4375 13.5 26.4375Z" fill="url(#paint0_linear_117_1734)"/>
<path d="M19.0739 8.84636C19.174 8.1991 18.5587 7.68821 17.9831 7.94089L6.5207 12.9735C6.10799 13.1547 6.13818 13.7799 6.56622 13.9162L8.93003 14.669C9.38123 14.8126 9.86972 14.7383 10.2637 14.4661L15.5932 10.7842C15.7539 10.6731 15.9291 10.9017 15.7917 11.0432L11.9555 14.9983C11.5833 15.382 11.6572 16.0322 12.1049 16.3129L16.3999 19.0063C16.8817 19.3084 17.5014 19.0049 17.5915 18.4228L19.0739 8.84636Z" fill="white"/>
<defs>
<linearGradient id="paint0_linear_117_1734" x1="13.5" y1="0.5625" x2="13.5" y2="26.4375" gradientUnits="userSpaceOnUse">
<stop stop-color="#37BBFE"/>
<stop offset="1" stop-color="#007DBB"/>
</linearGradient>
</defs>
</svg>
