<svg width="27" height="27" viewBox="0 0 27 27" fill="none" xmlns="http://www.w3.org/2000/svg">
<path d="M13.4859 26.4094C20.6234 26.4094 26.4094 20.6234 26.4094 13.4859C26.4094 6.34852 20.6234 0.5625 13.4859 0.5625C6.34852 0.5625 0.5625 6.34852 0.5625 13.4859C0.5625 20.6234 6.34852 26.4094 13.4859 26.4094Z" fill="#2A7DB5"/>
<path d="M17.3297 10.6004L9.5102 18.4149C9.39416 18.5309 9.24838 18.5875 9.07285 18.5849C8.89718 18.5822 8.75132 18.5228 8.63528 18.4068C8.51938 18.2907 8.46143 18.1462 8.46143 17.9732C8.46143 17.8003 8.51938 17.6558 8.63528 17.5397L16.4468 9.71722H9.57954C9.40149 9.71722 9.25222 9.65694 9.13171 9.53638C9.01133 9.41583 8.95115 9.26649 8.95115 9.08838C8.95115 8.91013 9.01133 8.76086 9.13171 8.64059C9.25222 8.52017 9.40149 8.45996 9.57954 8.45996H17.829C18.0436 8.45996 18.2235 8.53253 18.3686 8.67768C18.5138 8.82296 18.5864 9.00289 18.5864 9.21746V17.4703C18.5864 17.6484 18.5262 17.7977 18.4057 17.9181C18.2851 18.0387 18.1359 18.0989 17.9578 18.0989C17.7796 18.0989 17.6304 18.0387 17.51 17.9181C17.3898 17.7977 17.3297 17.6484 17.3297 17.4703V10.6004Z" fill="white"/>
</svg>
